<svg xmlns="http://www.w3.org/2000/svg" viewBox="0 0 415.64 89.52"><defs><style>.cls-1{fill:#0052cc;}.cls-2{fill:#017eff;}.cls-3{fill:#1800ff;}.cls-4{fill:#182b4d;}.cls-5{fill:none;}</style></defs><g id="Layer_2" data-name="Layer 2"><g id="Layer_1-2" data-name="Layer 1"><g id="b"><g id="c"><path class="cls-1" d="M93.55,23.19V47.12c-1,.52-42.83,24.08-45.36,25.5v-24C53.5,45.73,87.54,26.6,93.55,23.19Z"/><polygon class="cls-2" points="41.8 52.64 41.8 74.67 30.84 80.79 30.84 58.77 41.8 52.64"/><path class="cls-2" d="M56.13,13.33V37.26c-5.51,3.1-44.65,24.9-45.36,25.5V38.81C16.28,35.73,55.44,13.91,56.13,13.33Z"/><polygon class="cls-1" points="62.52 33.3 62.52 11.28 73.48 5.15 73.48 27.16 62.52 33.3"/><polygon class="cls-3" points="170.88 37.81 170.67 38.56 170.86 37.81 170.88 37.81"/><path class="cls-4" d="M123.26,16.39l-4.09,15.27H153l15.84,0,4.06-15.24ZM133.9,35.75l-9.26,34.5h18l9.3-34.5Z"/><path class="cls-4" d="M347,16.39,343,31.66h33.87l15.84,0,4.06-15.24Zm10.64,19.36-9.27,34.5h18l9.3-34.5Z"/><path class="cls-4" d="M222.11,33.39C222.94,12,192.22,16.9,177,16.4c-2.7,10-11.61,43.29-14.45,53.86h18l3.9-14.5h0c1.66-6.25,4.87-18.14,6.52-24.28h6.39c11.91.5,6,12.25-4.76,10.54l-3.42,12.85h0l6,15.4h19.39l-7.44-17.93c10.61-3.32,15-10.54,15-18.94Z"/><path class="cls-4" d="M266.52,16.39c-2.16,5.67-7.26,33.05-11.6,36.77-4.27,4.25-13.81,2.4-13.16-4.54-.46-2.13,7.59-29.5,8.15-32.23H231.6c-1.3,6.46-8.9,29.28-8.4,35.56-2.15,21,32.3,24.78,44.63,12.3,8.82-7.37,13.24-37,17-47.86Z"/><path class="cls-4" d="M320.42,46.35,306,58.26l4.53,12h19.17l-9.29-23.91Zm.67-30L303.16,35.68l5.25-19.29h-18L275.92,70.25h18c3-11.8,1.7-8.83,10.16-17.32,9.6-6.85,30.52-27.88,38.91-36.55H321.09Z"/><rect class="cls-5" width="415.64" height="89.52"/></g></g></g></g></svg>
